<svg width="317" height="329" viewBox="0 0 317 329" fill="none" xmlns="http://www.w3.org/2000/svg">
<g filter="url(#filter0_f_2_55)">
<circle cx="123.233" cy="120.779" r="76.6203" fill="#FFC701" fill-opacity="0.5"/>
</g>
<circle cx="123.233" cy="123.292" r="73.1083" fill="url(#paint0_linear_2_55)" stroke="url(#paint1_linear_2_55)" stroke-width="2"/>
<mask id="mask0_2_55" style="mask-type:alpha" maskUnits="userSpaceOnUse" x="49" y="90" width="149" height="108">
<path d="M197.342 123.292C197.342 164.22 164.162 197.4 123.233 197.4C82.3045 197.4 49.1251 164.22 49.1251 123.292C49.1251 82.3628 76.6522 91.8899 117.581 91.8899C158.51 91.8899 197.342 82.3628 197.342 123.292Z" fill="url(#paint2_linear_2_55)"/>
</mask>
<g mask="url(#mask0_2_55)">
<g filter="url(#filter1_f_2_55)">
<path fill-rule="evenodd" clip-rule="evenodd" d="M236.28 258.947C236.28 288.777 212.099 312.958 182.269 312.958C182.059 312.958 181.85 312.957 181.641 312.955V312.958H-8.02587L-8.02348 312.955C-8.23341 312.958 -8.44363 312.959 -8.65413 312.959C-38.4836 312.959 -62.6652 288.777 -62.6652 258.948C-62.6652 229.118 -38.4836 204.937 -8.65413 204.937C17.058 204.937 38.5737 222.903 44.0235 246.967L62.3142 223.777L119.466 204.936H181.641V204.94C181.85 204.937 182.059 204.936 182.269 204.936C212.099 204.936 236.28 229.118 236.28 258.947Z" fill="#E18700"/>
</g>
</g>
<g filter="url(#filter2_bd_2_55)">
<mask id="path-5-inside-1_2_55" fill="white">
<path fill-rule="evenodd" clip-rule="evenodd" d="M248.291 263.157C248.442 263.158 248.594 263.159 248.746 263.159C270.303 263.159 287.779 245.683 287.779 224.126C287.779 202.568 270.303 185.093 248.746 185.093C248.594 185.093 248.442 185.093 248.291 185.095V185.093H238.208C238.572 182.421 238.76 179.694 238.76 176.922C238.76 143.834 211.937 117.011 178.849 117.011C145.76 117.011 118.937 143.834 118.937 176.922C118.937 180.045 119.176 183.111 119.636 186.105C116.787 185.443 113.818 185.093 110.768 185.093C89.2102 185.093 71.7344 202.568 71.7344 224.126C71.7344 245.683 89.2102 263.159 110.768 263.159C110.92 263.159 111.071 263.158 111.223 263.157L111.221 263.159H248.291V263.157Z"/>
</mask>
<path fill-rule="evenodd" clip-rule="evenodd" d="M248.291 263.157C248.442 263.158 248.594 263.159 248.746 263.159C270.303 263.159 287.779 245.683 287.779 224.126C287.779 202.568 270.303 185.093 248.746 185.093C248.594 185.093 248.442 185.093 248.291 185.095V185.093H238.208C238.572 182.421 238.76 179.694 238.76 176.922C238.76 143.834 211.937 117.011 178.849 117.011C145.76 117.011 118.937 143.834 118.937 176.922C118.937 180.045 119.176 183.111 119.636 186.105C116.787 185.443 113.818 185.093 110.768 185.093C89.2102 185.093 71.7344 202.568 71.7344 224.126C71.7344 245.683 89.2102 263.159 110.768 263.159C110.92 263.159 111.071 263.158 111.223 263.157L111.221 263.159H248.291V263.157Z" fill="url(#paint3_linear_2_55)" shape-rendering="crispEdges"/>
<path d="M248.291 263.157L248.314 261.157C247.779 261.151 247.265 261.359 246.885 261.734C246.505 262.11 246.291 262.622 246.291 263.157H248.291ZM248.291 185.095H246.291C246.291 185.63 246.505 186.142 246.885 186.518C247.265 186.893 247.779 187.101 248.314 187.095L248.291 185.095ZM248.291 185.093H250.291C250.291 183.988 249.395 183.093 248.291 183.093V185.093ZM238.208 185.093L236.226 184.822C236.148 185.395 236.321 185.973 236.701 186.408C237.081 186.843 237.63 187.093 238.208 187.093V185.093ZM119.636 186.105L119.184 188.053C119.83 188.203 120.509 188.023 120.996 187.571C121.483 187.12 121.714 186.457 121.613 185.801L119.636 186.105ZM111.223 263.157L112.792 264.396C113.27 263.791 113.358 262.966 113.018 262.274C112.678 261.583 111.971 261.148 111.2 261.157L111.223 263.157ZM111.221 263.159L109.651 261.92C109.176 262.521 109.087 263.341 109.421 264.031C109.755 264.721 110.454 265.159 111.221 265.159V263.159ZM248.291 263.159V265.159C249.395 265.159 250.291 264.264 250.291 263.159H248.291ZM248.268 265.156C248.427 265.158 248.586 265.159 248.746 265.159V261.159C248.602 261.159 248.457 261.158 248.314 261.157L248.268 265.156ZM248.746 265.159C271.408 265.159 289.779 246.788 289.779 224.126H285.779C285.779 244.579 269.199 261.159 248.746 261.159V265.159ZM289.779 224.126C289.779 201.464 271.408 183.093 248.746 183.093V187.093C269.199 187.093 285.779 203.673 285.779 224.126H289.779ZM248.746 183.093C248.586 183.093 248.427 183.094 248.268 183.095L248.314 187.095C248.457 187.093 248.601 187.093 248.746 187.093V183.093ZM246.291 185.093V185.095H250.291V185.093H246.291ZM238.208 187.093H248.291V183.093H238.208V187.093ZM240.189 185.363C240.566 182.602 240.76 179.784 240.76 176.922H236.76C236.76 179.603 236.578 182.24 236.226 184.822L240.189 185.363ZM240.76 176.922C240.76 142.73 213.041 115.011 178.849 115.011V119.011C210.832 119.011 236.76 144.939 236.76 176.922H240.76ZM178.849 115.011C144.656 115.011 116.937 142.73 116.937 176.922H120.937C120.937 144.939 146.865 119.011 178.849 119.011V115.011ZM116.937 176.922C116.937 180.147 117.184 183.315 117.66 186.409L121.613 185.801C121.168 182.907 120.937 179.943 120.937 176.922H116.937ZM120.089 184.156C117.092 183.46 113.972 183.093 110.768 183.093V187.093C113.665 187.093 116.482 187.425 119.184 188.053L120.089 184.156ZM110.768 183.093C88.1056 183.093 69.7344 201.464 69.7344 224.126H73.7344C73.7344 203.673 90.3147 187.093 110.768 187.093V183.093ZM69.7344 224.126C69.7344 246.788 88.1056 265.159 110.768 265.159V261.159C90.3147 261.159 73.7344 244.579 73.7344 224.126H69.7344ZM110.768 265.159C110.927 265.159 111.087 265.158 111.246 265.156L111.2 261.157C111.056 261.158 110.912 261.159 110.768 261.159V265.159ZM112.79 264.399L112.792 264.396L109.653 261.917L109.651 261.92L112.79 264.399ZM248.291 261.159H111.221V265.159H248.291V261.159ZM246.291 263.157V263.159H250.291V263.157H246.291Z" fill="url(#paint4_linear_2_55)" mask="url(#path-5-inside-1_2_55)"/>
</g>
<defs>
<filter id="filter0_f_2_55" x="2.61304" y="0.159149" width="241.241" height="241.241" filterUnits="userSpaceOnUse" color-interpolation-filters="sRGB">
<feFlood flood-opacity="0" result="BackgroundImageFix"/>
<feBlend mode="normal" in="SourceGraphic" in2="BackgroundImageFix" result="shape"/>
<feGaussianBlur stdDeviation="22" result="effect1_foregroundBlur_2_55"/>
</filter>
<filter id="filter1_f_2_55" x="-76.6652" y="190.936" width="326.945" height="136.023" filterUnits="userSpaceOnUse" color-interpolation-filters="sRGB">
<feFlood flood-opacity="0" result="BackgroundImageFix"/>
<feBlend mode="normal" in="SourceGraphic" in2="BackgroundImageFix" result="shape"/>
<feGaussianBlur stdDeviation="7" result="effect1_foregroundBlur_2_55"/>
</filter>
<filter id="filter2_bd_2_55" x="0.734375" y="82.011" width="316.045" height="246.148" filterUnits="userSpaceOnUse" color-interpolation-filters="sRGB">
<feFlood flood-opacity="0" result="BackgroundImageFix"/>
<feGaussianBlur in="BackgroundImageFix" stdDeviation="7"/>
<feComposite in2="SourceAlpha" operator="in" result="effect1_backgroundBlur_2_55"/>
<feColorMatrix in="SourceAlpha" type="matrix" values="0 0 0 0 0 0 0 0 0 0 0 0 0 0 0 0 0 0 127 0" result="hardAlpha"/>
<feOffset dx="-21" dy="15"/>
<feGaussianBlur stdDeviation="25"/>
<feComposite in2="hardAlpha" operator="out"/>
<feColorMatrix type="matrix" values="0 0 0 0 0.113438 0 0 0 0 0.148981 0 0 0 0 0.275 0 0 0 0.25 0"/>
<feBlend mode="normal" in2="effect1_backgroundBlur_2_55" result="effect2_dropShadow_2_55"/>
<feBlend mode="normal" in="SourceGraphic" in2="effect2_dropShadow_2_55" result="shape"/>
</filter>
<linearGradient id="paint0_linear_2_55" x1="123.233" y1="49.1833" x2="123.233" y2="197.4" gradientUnits="userSpaceOnUse">
<stop stop-color="#FFE600"/>
<stop offset="1" stop-color="#FF7A00"/>
</linearGradient>
<linearGradient id="paint1_linear_2_55" x1="123.233" y1="49.1833" x2="123.233" y2="197.4" gradientUnits="userSpaceOnUse">
<stop stop-color="white"/>
<stop offset="1" stop-color="white" stop-opacity="0"/>
</linearGradient>
<linearGradient id="paint2_linear_2_55" x1="123.233" y1="49.1834" x2="123.233" y2="197.4" gradientUnits="userSpaceOnUse">
<stop stop-color="#FFD600"/>
<stop offset="1" stop-color="#FF7A00"/>
</linearGradient>
<linearGradient id="paint3_linear_2_55" x1="189.805" y1="121.407" x2="189.805" y2="279.673" gradientUnits="userSpaceOnUse">
<stop stop-color="white"/>
<stop offset="1" stop-color="white" stop-opacity="0"/>
</linearGradient>
<linearGradient id="paint4_linear_2_55" x1="179.757" y1="117.011" x2="179.757" y2="263.159" gradientUnits="userSpaceOnUse">
<stop stop-color="white"/>
<stop offset="1" stop-color="white" stop-opacity="0"/>
</linearGradient>
</defs>
</svg>
