<svg width="21" height="15" viewBox="0 0 21 15" fill="none" xmlns="http://www.w3.org/2000/svg">
<path d="M15.1632 9.95506C17.4096 9.95506 19.2307 8.17426 19.2307 5.97753C19.2307 3.7808 17.4096 2 15.1632 2C12.9168 2 11.0957 3.7808 11.0957 5.97753C11.0957 8.17426 12.9168 9.95506 15.1632 9.95506Z" fill="#FDCA4F"/>
<path d="M18.8972 15C20.0577 15 20.9999 14.0786 20.9999 12.9438C20.9999 11.809 20.0577 10.8876 18.8972 10.8876C18.8895 10.8876 18.8819 10.8876 18.8742 10.8876C18.6866 9.24716 17.2656 7.97375 15.5421 7.97375C14.1786 7.97375 13.0066 8.76776 12.4819 9.91008C12.4666 9.91008 12.4474 9.91008 12.4321 9.91008C10.9959 9.91008 9.83154 11.0487 9.83154 12.4532C9.83154 13.8577 10.9959 14.9962 12.4321 14.9962" fill="#5686DF"/>
<path d="M14.4353 15C16.2852 15 17.7828 13.5355 17.7828 11.7266C17.7828 9.91757 16.2852 8.45315 14.4353 8.45315C14.4239 8.45315 14.4124 8.45315 14.4009 8.45315C14.106 5.85015 11.8424 3.82019 9.09247 3.82019C6.92084 3.82019 5.05563 5.08611 4.22068 6.90259C4.19387 6.90259 4.16706 6.89884 4.14025 6.89884C1.85373 6.89884 0 8.71157 0 10.9475C0 13.1835 1.85373 14.9962 4.14025 14.9962" fill="#57AAFF"/>
<path d="M19.3286 3.25733C19.6758 3.25733 19.9573 2.97587 19.9573 2.62867C19.9573 2.28146 19.6758 2 19.3286 2C18.9814 2 18.7 2.28146 18.7 2.62867C18.7 2.97587 18.9814 3.25733 19.3286 3.25733Z" fill="#FDCA4F"/>
<path d="M20.3286 6.25733C20.6758 6.25733 20.9573 5.97587 20.9573 5.62867C20.9573 5.28146 20.6758 5 20.3286 5C19.9814 5 19.7 5.28146 19.7 5.62867C19.7 5.97587 19.9814 6.25733 20.3286 6.25733Z" fill="#FDCA4F"/>
<path d="M11.3286 3.25733C11.6758 3.25733 11.9573 2.97587 11.9573 2.62867C11.9573 2.28146 11.6758 2 11.3286 2C10.9814 2 10.7 2.28146 10.7 2.62867C10.7 2.97587 10.9814 3.25733 11.3286 3.25733Z" fill="#FDCA4F"/>
<path d="M19.3286 9.25733C19.6758 9.25733 19.9573 8.97587 19.9573 8.62867C19.9573 8.28146 19.6758 8 19.3286 8C18.9814 8 18.7 8.28146 18.7 8.62867C18.7 8.97587 18.9814 9.25733 19.3286 9.25733Z" fill="#FDCA4F"/>
<path d="M15.3286 1.25733C15.6758 1.25733 15.9573 0.97587 15.9573 0.628668C15.9573 0.281465 15.6758 0 15.3286 0C14.9814 0 14.7 0.281465 14.7 0.628668C14.7 0.97587 14.9814 1.25733 15.3286 1.25733Z" fill="#FDCA4F"/>
</svg>
