<svg width="28" height="28" viewBox="0 0 28 28" fill="none" xmlns="http://www.w3.org/2000/svg">
<path d="M13.5 20C17.0899 20 20 17.0899 20 13.5C20 9.91015 17.0899 7 13.5 7C9.91015 7 7 9.91015 7 13.5C7 17.0899 9.91015 20 13.5 20Z" fill="url(#paint0_linear_65_958)"/>
<path d="M21.6287 14.2573C21.9759 14.2573 22.2573 13.9759 22.2573 13.6287C22.2573 13.2815 21.9759 13 21.6287 13C21.2815 13 21 13.2815 21 13.6287C21 13.9759 21.2815 14.2573 21.6287 14.2573Z" fill="#FDCA4F"/>
<path d="M13.6287 22.2573C13.9759 22.2573 14.2573 21.9759 14.2573 21.6287C14.2573 21.2815 13.9759 21 13.6287 21C13.2815 21 13 21.2815 13 21.6287C13 21.9759 13.2815 22.2573 13.6287 22.2573Z" fill="#FDCA4F"/>
<path d="M13.6287 6.25733C13.9759 6.25733 14.2573 5.97587 14.2573 5.62867C14.2573 5.28146 13.9759 5 13.6287 5C13.2815 5 13 5.28146 13 5.62867C13 5.97587 13.2815 6.25733 13.6287 6.25733Z" fill="#FDCA4F"/>
<path d="M5.62867 14.2573C5.97587 14.2573 6.25734 13.9759 6.25734 13.6287C6.25734 13.2815 5.97587 13 5.62867 13C5.28146 13 5 13.2815 5 13.6287C5 13.9759 5.28146 14.2573 5.62867 14.2573Z" fill="#FDCA4F"/>
<path d="M7.62867 9.25733C7.97587 9.25733 8.25734 8.97587 8.25734 8.62867C8.25734 8.28146 7.97587 8 7.62867 8C7.28146 8 7 8.28146 7 8.62867C7 8.97587 7.28146 9.25733 7.62867 9.25733Z" fill="#FDCA4F"/>
<path d="M19.6287 9.25733C19.9759 9.25733 20.2573 8.97587 20.2573 8.62867C20.2573 8.28146 19.9759 8 19.6287 8C19.2815 8 19 8.28146 19 8.62867C19 8.97587 19.2815 9.25733 19.6287 9.25733Z" fill="#FDCA4F"/>
<path d="M19.6287 19.2573C19.9759 19.2573 20.2573 18.9759 20.2573 18.6287C20.2573 18.2815 19.9759 18 19.6287 18C19.2815 18 19 18.2815 19 18.6287C19 18.9759 19.2815 19.2573 19.6287 19.2573Z" fill="#FDCA4F"/>
<path d="M7.62867 19.2573C7.97587 19.2573 8.25734 18.9759 8.25734 18.6287C8.25734 18.2815 7.97587 18 7.62867 18C7.28146 18 7 18.2815 7 18.6287C7 18.9759 7.28146 19.2573 7.62867 19.2573Z" fill="#FDCA4F"/>
<defs>
<linearGradient id="paint0_linear_65_958" x1="8.90333" y1="18.0935" x2="18.0935" y2="8.90333" gradientUnits="userSpaceOnUse">
<stop stop-color="#EBB63A"/>
<stop offset="1" stop-color="#F3CC3B"/>
</linearGradient>
</defs>
</svg>
